<?xml version="1.0"?>
<svg xmlns="http://www.w3.org/2000/svg" xmlns:xlink="http://www.w3.org/1999/xlink" xmlns:svgjs="http://svgjs.com/svgjs" version="1.1" width="512" height="512" x="0" y="0" viewBox="0 0 512 512" style="enable-background:new 0 0 512 512" xml:space="preserve" class=""><g><g xmlns="http://www.w3.org/2000/svg" id="outline"><path d="M230,305.6a7.98,7.98,0,0,0,5.657-2.343L255.8,283.114l20.142,20.143a8,8,0,0,0,11.315,0l47.29-47.289a30.911,30.911,0,1,0-43.715-43.714l-4.312,4.313a30.891,30.891,0,0,0-47.288-4.314L230,221.486l-9.232-9.233a30.911,30.911,0,0,0-43.715,43.715l47.29,47.289A7.98,7.98,0,0,0,230,305.6Zm72.146-82.033a14.91,14.91,0,1,1,21.086,21.086L281.6,286.286,267.115,271.8l15.832-15.832h0A30.711,30.711,0,0,0,292,234.11c0-.129-.008-.257-.01-.386ZM184,234.11a14.91,14.91,0,0,1,25.453-10.543l14.89,14.89a8,8,0,0,0,11.314,0l14.89-14.89a14.91,14.91,0,0,1,21.086,21.086L230,286.286l-41.633-41.632A14.816,14.816,0,0,1,184,234.11Z" fill="#c78665" data-original="#000000" style="" class=""/><path d="M416,48H392V24a8,8,0,0,0-8.884-7.951L95.185,48.041h-.008l-.061.007c-.042,0-.074.014-.115.02A8,8,0,0,0,88,56V488a8,8,0,0,0,8,8H416a8,8,0,0,0,8-8V56A8,8,0,0,0,416,48Zm-40,0H240.445L376,32.938ZM104,64h54.059L104,118.059Zm0,76.687L180.687,64h22.626L104,163.313Zm0,45.254L225.941,64H408V341.156L269.156,480H104ZM291.784,480,407.02,364.765l-1.137,23.764L314.412,480Zm45.256,0L408,409.04V480Z" fill="#c78665" data-original="#000000" style="" class=""/><path d="M192,368H320a8,8,0,0,0,8-8,40.045,40.045,0,0,1,40-40,8,8,0,0,0,8-8V184a8,8,0,0,0-8-8,40.045,40.045,0,0,1-40-40,8,8,0,0,0-8-8H192a8,8,0,0,0-8,8,40.045,40.045,0,0,1-40,40,8,8,0,0,0-8,8V312a8,8,0,0,0,8,8,40.045,40.045,0,0,1,40,40A8,8,0,0,0,192,368Zm-40-63.431V191.431A56.134,56.134,0,0,0,199.431,144H312.569A56.134,56.134,0,0,0,360,191.431V304.569A56.134,56.134,0,0,0,312.569,352H199.431A56.134,56.134,0,0,0,152,304.569Z" fill="#c78665" data-original="#000000" style="" class=""/><path d="M208,392a8,8,0,0,0-8-8H184a8,8,0,0,0,0,16h16A8,8,0,0,0,208,392Z" fill="#c78665" data-original="#000000" style="" class=""/><path d="M224,384a8,8,0,0,0,0,16h24a8,8,0,0,0,0-16Z" fill="#c78665" data-original="#000000" style="" class=""/><path d="M312,384H280a8,8,0,0,0,0,16h32a8,8,0,0,0,0-16Z" fill="#c78665" data-original="#000000" style="" class=""/><path d="M232,416H208a8,8,0,0,0,0,16h24a8,8,0,0,0,0-16Z" fill="#c78665" data-original="#000000" style="" class=""/><path d="M296,432a8,8,0,0,0,0-16H256a8,8,0,0,0,0,16Z" fill="#c78665" data-original="#000000" style="" class=""/></g></g></svg>
