<svg xmlns="http://www.w3.org/2000/svg" width="512" height="512"><g xmlns="http://www.w3.org/2000/svg" fill="#c78665"><path d="M230 305.6a7.98 7.98 0 005.657-2.343l20.143-20.143 20.142 20.143a8 8 0 0011.315 0l47.29-47.289a30.911 30.911 0 10-43.715-43.714l-4.312 4.313a30.891 30.891 0 00-47.288-4.314L230 221.486l-9.232-9.233a30.911 30.911 0 00-43.715 43.715l47.29 47.289A7.98 7.98 0 00230 305.6zm72.146-82.033a14.91 14.91 0 1121.086 21.086L281.6 286.286 267.115 271.8l15.832-15.832A30.711 30.711 0 00292 234.11c0-.129-.008-.257-.01-.386zM184 234.11a14.91 14.91 0 0125.453-10.543l14.89 14.89a8 8 0 0011.314 0l14.89-14.89a14.91 14.91 0 0121.086 21.086L230 286.286l-41.633-41.632A14.816 14.816 0 01184 234.11z" data-original="#000000"/><path d="M416 48h-24V24a8 8 0 00-8.884-7.951L95.185 48.041h-.008l-.061.007c-.042 0-.074.014-.115.02A8 8 0 0088 56v432a8 8 0 008 8h320a8 8 0 008-8V56a8 8 0 00-8-8zm-40 0H240.445L376 32.938zM104 64h54.059L104 118.059zm0 76.687L180.687 64h22.626L104 163.313zm0 45.254L225.941 64H408v277.156L269.156 480H104zM291.784 480L407.02 364.765l-1.137 23.764L314.412 480zm45.256 0L408 409.04V480z" data-original="#000000"/><path d="M192 368h128a8 8 0 008-8 40.045 40.045 0 0140-40 8 8 0 008-8V184a8 8 0 00-8-8 40.045 40.045 0 01-40-40 8 8 0 00-8-8H192a8 8 0 00-8 8 40.045 40.045 0 01-40 40 8 8 0 00-8 8v128a8 8 0 008 8 40.045 40.045 0 0140 40 8 8 0 008 8zm-40-63.431V191.431A56.134 56.134 0 00199.431 144h113.138A56.134 56.134 0 00360 191.431v113.138A56.134 56.134 0 00312.569 352H199.431A56.134 56.134 0 00152 304.569zM208 392a8 8 0 00-8-8h-16a8 8 0 000 16h16a8 8 0 008-8zm16-8a8 8 0 000 16h24a8 8 0 000-16zm88 0h-32a8 8 0 000 16h32a8 8 0 000-16zm-80 32h-24a8 8 0 000 16h24a8 8 0 000-16zm64 16a8 8 0 000-16h-40a8 8 0 000 16z" data-original="#000000"/></g></svg>